Coordinates
version=1
nRows=26
nColumns=24
inDegrees=yes

Units are S.I. units (second, meters, Newtons, ...)
Angles are in degrees.

endheader
time	pelvis_tilt	pelvis_list	pelvis_rotation	pelvis_tx	pelvis_ty	pelvis_tz	hip_flexion_r	hip_adduction_r	hip_rotation_r	knee_angle_r	ankle_angle_r	subtalar_angle_r	mtp_angle_r	hip_flexion_l	hip_adduction_l	hip_rotation_l	knee_angle_l	ankle_angle_l	subtalar_angle_l	mtp_angle_l	lumbar_extension	lumbar_bending	lumbar_rotation
      1.03733333	      7.99238623	     -4.04258932	     -2.98917591	      0.43200443	      1.03032387	      0.31758179	      0.54086778	      7.73836706	      3.60773315	    -12.40619686	     -4.56760242	    -21.87195312	     -5.85021037	     10.12660409	     -7.50363609	     -5.91797887	    -72.70879126	      3.25874514	    -16.97249624	    -18.14287864	    -19.69652213	      4.48460884	      5.27473834
      1.04150000	      8.24986423	     -3.85666429	     -3.21442416	      0.43728440	      1.03161729	      0.31830630	     -0.23676580	      7.50823618	      3.80626859	    -12.09037277	     -4.37343207	    -21.65385024	     -5.82044605	     10.42400358	     -7.27832806	     -6.06364010	    -72.18454454	      3.43244210	    -16.76306672	    -18.14280705	    -19.95357996	      4.14879470	      5.41357275
      1.04566667	      8.32509525	     -3.66663832	     -3.35824619	      0.44251950	      1.03254783	      0.31884101	     -0.79059234	      7.27905343	      3.90225610	    -11.79541878	     -4.33969225	    -21.59281753	     -5.80965739	     10.96481717	     -7.03128501	     -6.10139143	    -71.67459306	      3.60891563	    -16.57840991	    -18.13873380	    -20.00111406	      3.84734679	      5.47117474
      1.04983333	      8.58886153	     -3.46970730	     -3.61302749	      0.44778054	      1.03379841	      0.31962422	     -1.56590683	      7.02878516	      4.13276284	    -11.48869285	     -4.14961419	    -21.39102363	     -5.77755883	     11.21114038	     -6.81150876	     -6.30340479	    -71.02479406	      3.74065934	    -16.41880888	    -18.13272517	    -20.26592178	      3.48855558	      5.61359167
      1.05400000	      8.76316818	     -3.27651839	     -3.81961117	      0.45301498	      1.03484703	      0.32033402	     -2.23345796	      6.78747339	      4.30879738	    -11.18432915	     -4.05608686	    -21.29829304	     -5.74834412	     11.57032030	     -6.59243940	     -6.44866762	    -70.35867588	      3.86421829	    -16.27985927	    -18.12384135	    -20.42527792	      3.14041164	      5.73482114
      1.05816667	      8.92821554	     -3.09314034	     -4.02880503	      0.45822682	      1.03583571	      0.32103057	     -2.88271848	      6.55208051	      4.48905680	    -10.89090535	     -3.95576182	    -21.19148229	     -5.72021769	     11.92467906	     -6.39094177	     -6.60491403	    -69.64762637	      3.99916119	    -16.14293435	    -18.11300581	    -20.57772636	      2.81875550	      5.83929192
      1.06233333	      9.10050202	     -2.90476997	     -4.25298618	      0.46342771	      1.03679745	      0.32178282	     -3.53316689	      6.30854416	      4.68189979	    -10.60746926	     -3.84265141	    -21.08112771	     -5.69462522	     12.24732429	     -6.19680642	     -6.79233668	    -68.87674066	      4.11431931	    -16.02584535	    -18.10204090	    -20.73668691	      2.46380064	      5.94290535
      1.06650000	      9.22570777	     -2.71679912	     -4.48332896	      0.46864050	      1.03766661	      0.32251570	     -4.12361088	      6.06315184	      4.87865100	    -10.33786556	     -3.73811663	    -20.99221048	     -5.67111148	     12.60159898	     -6.00912036	     -6.99047442	    -68.05500509	      4.22584900	    -15.93743145	    -18.09088083	    -20.83787664	      2.13395116	      6.05528534
      1.07066667	      9.37615507	     -2.54042674	     -4.71249296	      0.47380586	      1.03851274	      0.32329402	     -4.73643729	      5.82953969	      5.08617635	    -10.07225232	     -3.62976576	    -20.89681200	     -5.65113096	     12.91316505	     -5.84439964	     -7.19920355	    -67.18903759	      4.34072355	    -15.84632116	    -18.08072290	    -20.97753025	      1.78934898	      6.16286101
      1.07483333	      9.52551024	     -2.35770549	     -4.96082206	      0.47897104	      1.03933718	      0.32408042	     -5.33791448	      5.58087880	      5.29768828	     -9.82103294	     -3.51883855	    -20.80859159	     -5.63330992	     13.19591128	     -5.68012422	     -7.44084765	    -66.25736831	      4.45013391	    -15.79224878	    -18.07231041	    -21.10756131	      1.45494126	      6.28715973
      1.07900000	      9.64779249	     -2.19054931	     -5.20325573	      0.48412226	      1.04006695	      0.32487477	     -5.90348086	      5.35124416	      5.50958544	     -9.58031004	     -3.41056111	    -20.73213140	     -5.61920056	     13.49551120	     -5.54255569	     -7.68394097	    -65.29231839	      4.56756906	    -15.74574144	    -18.06593143	    -21.21018155	      1.12731423	      6.40772335
      1.08316667	      9.75295671	     -2.02767304	     -5.44195123	      0.48927356	      1.04072917	      0.32565855	     -6.44302472	      5.12363426	      5.70468617	     -9.35003590	     -3.29750627	    -20.65880090	     -5.60951133	     13.79462912	     -5.41616466	     -7.93369836	    -64.27959245	      4.67438132	    -15.71544238	    -18.06330387	    -21.28782712	      0.80751131	      6.51202518
      1.08733333	      9.87135384	     -1.86875703	     -5.69838492	      0.49438295	      1.04137509	      0.32647575	     -6.98886944	      4.89491078	      5.93386339	     -9.12972197	     -3.18196516	    -20.58034286	     -5.60171315	     14.05394864	     -5.30088595	     -8.21018253	    -63.21445477	      4.80021132	    -15.71439962	    -18.06475165	    -21.39550055	      0.48198115	      6.64605981
      1.09150000	      9.97526948	     -1.72780344	     -5.95742346	      0.49949844	      1.04195324	      0.32730807	     -7.51374126	      4.68423431	      6.15424793	     -8.91824744	     -3.07957401	    -20.52392311	     -5.59782522	     14.30668605	     -5.21599928	     -8.50193191	    -62.11040600	      4.95813768	    -15.73412390	    -18.07130213	    -21.47743992	      0.17853678	      6.80578274
      1.09566667	     10.05060683	     -1.58945198	     -6.20167456	      0.50459332	      1.04243815	      0.32811370	     -7.99781578	      4.47839578	      6.35807540	     -8.72453387	     -2.94511298	    -20.45498777	     -5.59723753	     14.57885707	     -5.13719437	     -8.78427492	    -60.96310699	      5.04545001	    -15.74968678	    -18.08323888	    -21.52818984	     -0.11822226	      6.89035885
      1.09983333	     10.02299401	     -1.47343854	     -6.36354546	      0.50972304	      1.04270124	      0.32869147	     -8.36621849	      4.30895994	      6.45882295	     -8.53749296	     -2.88721060	    -20.42399026	     -5.59895978	     14.97448919	     -5.05824506	     -8.96188112	    -59.82054400	      5.24693513	    -15.76438538	    -18.09083316	    -21.46073609	     -0.33296454	      6.93895647
      1.10400000	     10.19304207	     -1.34919185	     -6.70268145	      0.51476814	      1.04328059	      0.32972019	     -8.94513718	      4.09357873	      6.77051201	     -8.35193763	     -2.70901076	    -20.33030642	     -5.60529964	     15.05860044	     -5.03124306	     -9.38952204	    -58.54210632	      5.33388190	    -15.85885353	    -18.12838346	    -21.62958605	     -0.67146817	      7.18853004
      1.10816667	     10.21223123	     -1.24757821	     -6.93141706	      0.51983735	      1.04354409	      0.33049198	     -9.35211435	      3.92871008	      6.96322655	     -8.18674475	     -2.58248793	    -20.29273357	     -5.61287247	     15.33617731	     -5.00589873	     -9.67824382	    -57.28106973	      5.41137061	    -15.91944743	    -18.16160563	    -21.62379592	     -0.91281514	      7.25279800
      1.11233333	     10.28620834	     -1.15472469	     -7.19049995	      0.52490572	      1.04386157	      0.33131333	     -9.81740146	      3.75699345	      7.16644674	     -8.01822565	     -2.46456539	    -20.24267411	     -5.62640128	     15.51237620	     -4.99509932	    -10.01955921	    -55.96261949	      5.55821445	    -16.00673377	    -18.21752502	    -21.67694810	     -1.16756920	      7.42729315
      1.11650000	     10.27943856	     -1.07679767	     -7.40441121	      0.52997765	      1.04399441	      0.33203828	    -10.18918084	      3.61573987	      7.32882569	     -7.86806736	     -2.33013635	    -20.20106093	     -5.63599335	     15.77977748	     -4.99948380	    -10.31561578	    -54.62952241	      5.62230585	    -16.09715277	    -18.26559953	    -21.64657605	     -1.37461892	      7.49108156
      1.12066667	     10.27914731	     -1.01248157	     -7.62727981	      0.53503884	      1.04410623	      0.33277088	    -10.56534300	      3.48444600	      7.50517601	     -7.72202231	     -2.19573879	    -20.14868220	     -5.64611765	     16.01164313	     -5.01877247	    -10.62314898	    -53.25205681	      5.70879053	    -16.20706419	    -18.32514118	    -21.62412712	     -1.56920858	      7.61085208
      1.12483333	     10.33300508	     -0.96538103	     -7.87011958	      0.54009134	      1.04425313	      0.33356057	    -11.00206123	      3.35917533	      7.69394124	     -7.57000258	     -2.07997772	    -20.11546516	     -5.66393054	     16.14975410	     -5.06487420	    -10.98032237	    -51.83070773	      5.82934771	    -16.30223937	    -18.42801344	    -21.65914183	     -1.77012067	      7.79765995
      1.12900000	     10.29146018	     -0.93035089	     -8.07170500	      0.54513535	      1.04420043	      0.33422660	    -11.32355950	      3.26362623	      7.84442043	     -7.44880055	     -1.92626161	    -20.07639884	     -5.67384096	     16.39531513	     -5.11674644	    -11.28605609	    -50.39432415	      5.85345377	    -16.44269158	    -18.50821519	    -21.59625152	     -1.91186938	      7.85364497
      1.13316667	     10.30602585	     -0.90556138	     -8.28977442	      0.55021035	      1.04419787	      0.33493144	    -11.71386973	      3.16330950	      7.99555879	     -7.31117288	     -1.80187485	    -20.03655738	     -5.68591983	     16.54041478	     -5.18145487	    -11.63354360	    -48.91113494	      5.93433128	    -16.55180400	    -18.63252332	    -21.59140294	     -2.07264526	      8.01696862
      1.13733333	     10.18067451	     -0.89940143	     -8.41282686	      0.55531750	      1.04391112	      0.33540657	    -11.95122287	      3.11718459	      8.05658320	     -7.18855362	     -1.69013582	    -20.03091326	     -5.68802071	     16.86183442	     -5.24730210	    -11.86176291	    -47.44393590	      5.96538247	    -16.65617855	    -18.67665070	    -21.43859126	     -2.13853870	      8.00569262
      1.14150000	     10.20450624	     -0.90837911	     -8.65546703	      0.56032186	      1.04383532	      0.33613490	    -12.33436814	      3.04387451	      8.24091966	     -7.09258404	     -1.47176562	    -19.93700455	     -5.68781345	     16.95162641	     -5.35487553	    -12.25781048	    -45.88989794	      5.92986520	    -16.81813827	    -18.79465852	    -21.45623017	     -2.26376915	      8.17319055
